<svg width="32" height="32" viewBox="0 0 32 32" fill="none" xmlns="http://www.w3.org/2000/svg">
<path d="M8 0.5H24C28.1421 0.5 31.5 3.85786 31.5 8V24C31.5 28.1421 28.1421 31.5 24 31.5H8C3.85786 31.5 0.5 28.1421 0.5 24V8C0.5 3.85786 3.85786 0.5 8 0.5Z" fill="#0A0A0A"/>
<path d="M8 0.5H24C28.1421 0.5 31.5 3.85786 31.5 8V24C31.5 28.1421 28.1421 31.5 24 31.5H8C3.85786 31.5 0.5 28.1421 0.5 24V8C0.5 3.85786 3.85786 0.5 8 0.5Z" stroke="#E5E5E5"/>
<path d="M10.3955 16.7699C9.62477 14.0918 11.171 11.2961 13.849 10.5254L22.6236 8.00018C23.3943 10.6782 21.8482 13.4739 19.1702 14.2446L10.3955 16.7699Z" fill="white"/>
<path d="M7.70278 22.3629C7.31465 21.0142 8.09333 19.6063 9.44202 19.2181L20.6236 16.0002C21.3999 18.6976 19.8426 21.5135 17.1452 22.2898L10.8476 24.1021C9.49889 24.4903 8.09092 23.7116 7.70278 22.3629Z" fill="white"/>
</svg>
